<!DOCTYPE svg PUBLIC "-//W3C//DTD SVG 1.1//EN" "http://www.w3.org/Graphics/SVG/1.1/DTD/svg11.dtd">
<!-- Uploaded to: SVG Repo, www.svgrepo.com, Transformed by: SVG Repo Mixer Tools -->
<svg fill="#000000" width="800px" height="800px" viewBox="0 0 24 24" id="upload-11" data-name="Flat Line" xmlns="http://www.w3.org/2000/svg" class="icon flat-line">
<g id="SVGRepo_bgCarrier" stroke-width="0"/>
<g id="SVGRepo_tracerCarrier" stroke-linecap="round" stroke-linejoin="round"/>
<g id="SVGRepo_iconCarrier">
<path id="secondary" d="M18.35,9.44,17.05,11a1,1,0,0,1-1.41.11L14,9.66V17H10V9.66L8.36,11.07A1,1,0,0,1,7,11L5.65,9.44A1,1,0,0,1,5.76,8l5.59-4.79a1,1,0,0,1,1.3,0L18.24,8A1,1,0,0,1,18.35,9.44Z" style="fill: #235961; stroke-width: 2;"/>
<path id="primary" d="M20,17v3a1,1,0,0,1-1,1H5a1,1,0,0,1-1-1V17" style="fill: none; stroke: #000000; stroke-linecap: round; stroke-linejoin: round; stroke-width: 2;"/>
<path id="primary-2" data-name="primary" d="M18.35,9.44,17.05,11a1,1,0,0,1-1.41.11L14,9.66V17H10V9.66L8.36,11.07A1,1,0,0,1,7,11L5.65,9.44A1,1,0,0,1,5.76,8l5.59-4.79a1,1,0,0,1,1.3,0L18.24,8A1,1,0,0,1,18.35,9.44Z" style="fill: none; stroke: #000000; stroke-linecap: round; stroke-linejoin: round; stroke-width: 2;"/>
</g>
</svg>